. 
 
http://www.torrenting.com          :     Once & For all ;)


               www . Torrenting . Com 

(((((((((((((= Enjoy No RAR releases =))))))))))))))))))))


...................................NFO:....................................

.                       
                           
                           _______                _                    
                          (_______)              | |                   
                           _____ ____ _____ _____| |__  _____ _____    
                          |  ___) ___) ___ | ___ |  _ \| ___ | ___ |   
                          | |  | |   | ____| ____| |_) ) ____| ____|   
                          |_|  |_|   |_____)_____)____/|_____)_____)   
                                                                       
                           
                       

General
Complete name                    : Real Steel 2011 480p DVDRip x264 AC3-Freebee
Format                           : Matroska
Format version                   : Version 2
File size                        : 1.73 GiB
Duration                         : 2h 6mn
Overall bit rate                 : 1 949 Kbps
Encoded date                     : UTC 2012-01-04 04:47:30
Writing application              : mkvmerge v5.0.1 ('Es ist Sommer') built on Oct  9 2011 11:55:43
Writing library                  : libebml v1.2.2 + libmatroska v1.3.0

Video
ID                               : 1
Format                           : AVC
Format/Info                      : Advanced Video Codec
Format profile                   : High@L4.1
Format settings, CABAC           : Yes
Format settings, ReFrames        : 5 frames
Codec ID                         : V_MPEG4/ISO/AVC
Duration                         : 2h 6mn
Bit rate                         : 1 499 Kbps
Width                            : 720 pixels
Height                           : 304 pixels
Display aspect ratio             : 2.35:1
Frame rate                       : 23.976 fps
Color space                      : YUV
Chroma subsampling               : 4:2:0
Bit depth                        : 8 bits
Scan type                        : Progressive
Bits/(Pixel*Frame)               : 0.286
Stream size                      : 1.30 GiB (75%)
Writing library                  : x264 core 120 r2120 0c7dab9

Encoding settings                : cabac=1 / ref=5 / deblock=1:0:0 / analyse=0x3:0x113 / me=umh
 / subme=9 / psy=1 / psy_rd=1.00:0.15 / mixed_ref=1 / me_range=24 / chroma_me=1 / trellis=2
 / 8x8dct=1 / cqm=0 / deadzone=21,11 / fast_pskip=1 / chroma_qp_offset=-3 / threads=9
 / sliced_threads=0 / nr=0 / decimate=1 / interlaced=0 / bluray_compat=0 / constrained_intra=0
 / bframes=3 / b_pyramid=2 / b_adapt=2 / b_bias=0 / direct=3 / weightb=1 / open_gop=0 / weightp=2
 / keyint=250 / keyint_min=23 / scenecut=40 / intra_refresh=0 / rc_lookahead=50 / rc=2pass
 / mbtree=1 / bitrate=1499 / ratetol=1.0 / qcomp=0.60 / qpmin=0 / qpmax=69 / qpstep=4
 / cplxblur=20.0 / qblur=0.5 / vbv_maxrate=31250 / vbv_bufsize=31250 / nal_hrd=none
 / ip_ratio=1.40 / aq=1:1.00

Default                          : Yes
Forced                           : No

Audio
ID                               : 2
Format                           : AC-3
Format/Info                      : Audio Coding 3
Mode extension                   : CM (complete main)
Codec ID                         : A_AC3
Duration                         : 2h 6mn
Bit rate mode                    : Constant
Bit rate                         : 448 Kbps
Channel(s)                       : 6 channels
Channel positions                : Front: L C R, Side: L R, LFE
Sampling rate                    : 48.0 KHz
Bit depth                        : 16 bits
Compression mode                 : Lossy
Stream size                      : 406 MiB (23%)
Language                         : English
Default                          : Yes
Forced                           : No

Text #1
ID                               : 3
Format                           : UTF-8
Codec ID                         : S_TEXT/UTF8
Codec ID/Info                    : UTF-8 Plain Text
Language                         : English
Default                          : Yes
Forced                           : No

Text #2
ID                               : 4
Format                           : UTF-8
Codec ID                         : S_TEXT/UTF8
Codec ID/Info                    : UTF-8 Plain Text
Language                         : Arabic
Default                          : No
Forced                           : No

Text #3
ID                               : 5
Format                           : UTF-8
Codec ID                         : S_TEXT/UTF8
Codec ID/Info                    : UTF-8 Plain Text
Language                         : Portuguese
Default                          : No
Forced                           : No

Menu
00:00:00.000                     : :Chapter 1
00:05:00.000                     : :Chapter 2
00:10:00.000                     : :Chapter 3
00:15:00.000                     : :Chapter 4
00:20:00.000                     : :Chapter 5
00:25:00.000                     : :Chapter 6
00:30:00.000                     : :Chapter 7
00:35:00.000                     : :Chapter 8
00:40:00.000                     : :Chapter 9
00:45:00.000                     : :Chapter 10
00:50:00.000                     : :Chapter 11
00:55:00.000                     : :Chapter 12
01:00:00.000                     : :Chapter 13
01:05:00.000                     : :Chapter 14
01:10:00.000                     : :Chapter 15
01:15:00.000                     : :Chapter 16
01:20:00.000                     : :Chapter 17
01:25:00.000                     : :Chapter 18
01:30:00.000                     : :Chapter 19
01:35:00.000                     : :Chapter 20
01:40:00.000                     : :Chapter 21
01:45:00.000                     : :Chapter 22
01:50:00.000                     : :Chapter 23
01:55:00.000                     : :Chapter 24
02:00:00.000                     : :Chapter 25
02:05:00.000                     : :Chapter 26




              IMDb Rating..........: 7.5/10
              IMDb.................: http://www.imdb.com/title/tt0433035/

              Plot.................: Set in the near future, where robot boxing is a top sport,
 a struggling promoter feels he's found a champion in a discarded robot. During his hopeful rise
 to the top, he discovers he has an 11-year-old son who wants to know his father. 

              Director.............: Shawn Levy
              Writer...............: John Gatins, Dan Gilroy
              Stars................: Hugh Jackman, Evangeline Lilly and Dakota Goyo
              Genre................: Action | Drama | Sci-Fi   -  7 October 2011 (USA)
              Rated................: PG-13